<?xml version="1.0" encoding="UTF-8" standalone="no" ?>
<!DOCTYPE svg PUBLIC "-//W3C//DTD SVG 1.1//EN" "http://www.w3.org/Graphics/SVG/1.1/DTD/svg11.dtd">
<svg width="225mm" xmlns="http://www.w3.org/2000/svg" height="233mm" version="1.1" viewBox="0 0 852 883" xmlns:xlink="http://www.w3.org/1999/xlink">
   <path d="M668,72 L511,72 A8,8 0 0,0 503,80 L503,131" fill="none" stroke="#800000" stroke-width="1" stroke-dasharray="16,8"/>
   <polyline fill="none" points="499,110 503,123 507,110" stroke="#800000" stroke-width="1"/>
   <text x="503" y="66" fill="#000000" font-size="10" font-family="Arial" text-anchor="middle">&lt;&lt;extend&gt;&gt;</text>
   <path d="M766,104 L641,104 A8,8 0 0,0 633,112 L633,158 A8,8 0 0,1 625,166 L440,166" fill="none" stroke="#800000" stroke-width="1" stroke-dasharray="16,8"/>
   <polyline fill="none" points="534,162 521,166 534,170" stroke="#800000" stroke-width="1"/>
   <text x="633" y="129" fill="#000000" font-size="10" font-family="Arial" text-anchor="middle">&lt;&lt;extend&gt;&gt;</text>
   <path d="M494,178 L767,178 A8,8 0 0,1 775,186 L775,329" fill="none" stroke="#800000" stroke-width="1" stroke-dasharray="16,8"/>
   <polyline fill="none" points="771,254 775,268 779,254" stroke="#800000" stroke-width="1"/>
   <text x="775" y="172" fill="#000000" font-size="10" font-family="Arial" text-anchor="middle">&lt;&lt;include&gt;&gt;</text>
   <polyline fill="none" points="555,284 752,284" stroke="#800000" stroke-width="1" stroke-dasharray="16,8"/>
   <polyline fill="none" points="712,288 726,284 712,280" stroke="#800000" stroke-width="1"/>
   <text x="651" y="278" fill="#000000" font-size="10" font-family="Arial" text-anchor="middle">&lt;&lt;include&gt;&gt;</text>
   <path d="M567,396 L567,314 A8,8 0 0,1 575,306 L753,306" fill="none" stroke="#800000" stroke-width="1" stroke-dasharray="16,8"/>
   <polyline fill="none" points="703,310 716,306 703,302" stroke="#800000" stroke-width="1"/>
   <path d="M295,455 L295,332 A8,8 0 0,1 303,324 L796,324" fill="none" stroke="#800000" stroke-width="1" stroke-dasharray="16,8"/>
   <polyline fill="none" points="711,328 725,324 711,320" stroke="#800000" stroke-width="1"/>
   <text x="295" y="327" fill="#000000" font-size="10" font-family="Arial" text-anchor="middle">&lt;&lt;include&gt;&gt;</text>
   <path d="M340,588 L340,313 A8,8 0 0,1 348,305 L760,305" fill="none" stroke="#800000" stroke-width="1" stroke-dasharray="16,8"/>
   <polyline fill="none" points="703,309 716,305 703,301" stroke="#800000" stroke-width="1"/>
   <text x="340" y="308" fill="#000000" font-size="10" font-family="Arial" text-anchor="middle">&lt;&lt;include&gt;&gt;</text>
   <path d="M170,696 L170,320 A8,8 0 0,1 178,312 L755,312" fill="none" stroke="#800000" stroke-width="1" stroke-dasharray="16,8"/>
   <polyline fill="none" points="704,316 717,312 704,308" stroke="#800000" stroke-width="1"/>
   <text x="170" y="315" fill="#000000" font-size="10" font-family="Arial" text-anchor="middle">&lt;&lt;include&gt;&gt;</text>
   <path d="M459,521 L459,467 A8,8 0 0,0 451,459 L284,459" fill="none" stroke="#800000" stroke-width="1" stroke-dasharray="16,8"/>
   <polyline fill="none" points="330,455 317,459 330,463" stroke="#800000" stroke-width="1"/>
   <text x="459" y="462" fill="#000000" font-size="10" font-family="Arial" text-anchor="middle">&lt;&lt;extend&gt;&gt;</text>
   <path d="M647,491 L469,491 A8,8 0 0,1 461,483 L461,482 A8,8 0 0,0 453,474 L264,474" fill="none" stroke="#800000" stroke-width="1" stroke-dasharray="16,8"/>
   <polyline fill="none" points="330,470 316,474 330,478" stroke="#800000" stroke-width="1"/>
   <text x="460" y="494" fill="#000000" font-size="10" font-family="Arial" text-anchor="middle">&lt;&lt;extend&gt;&gt;</text>
   <path d="M434,612 L434,487 A8,8 0 0,0 426,479 L285,479" fill="none" stroke="#800000" stroke-width="1" stroke-dasharray="16,8"/>
   <polyline fill="none" points="327,475 314,479 327,483" stroke="#800000" stroke-width="1"/>
   <text x="434" y="482" fill="#000000" font-size="10" font-family="Arial" text-anchor="middle">&lt;&lt;extend&gt;&gt;</text>
   <path d="M186,823 L156,823 A8,8 0 0,1 148,815 L148,713" fill="none" stroke="#800000" stroke-width="1" stroke-dasharray="16,8"/>
   <polyline fill="none" points="152,741 148,728 144,741" stroke="#800000" stroke-width="1"/>
   <text x="148" y="835" fill="#000000" font-size="10" font-family="Arial" text-anchor="middle">&lt;&lt;extend&gt;&gt;</text>
   <path d="M463,772 L463,704 A8,8 0 0,0 455,696 L159,696" fill="none" stroke="#800000" stroke-width="1" stroke-dasharray="16,8"/>
   <polyline fill="none" points="200,692 187,696 200,700" stroke="#800000" stroke-width="1"/>
   <text x="463" y="699" fill="#000000" font-size="10" font-family="Arial" text-anchor="middle">&lt;&lt;extend&gt;&gt;</text>
   <path d="M295,820 L295,722 A8,8 0 0,0 287,714 L151,714" fill="none" stroke="#800000" stroke-width="1" stroke-dasharray="16,8"/>
   <polyline fill="none" points="190,710 177,714 190,718" stroke="#800000" stroke-width="1"/>
   <text x="295" y="717" fill="#000000" font-size="10" font-family="Arial" text-anchor="middle">&lt;&lt;extend&gt;&gt;</text>
   <path d="M265,191 L265,219 A8,8 0 0,1 257,227 L33,227" fill="none" stroke="#800000" stroke-width="1"/>
   <path d="M155,168 L155,222 A8,8 0 0,1 147,230 L35,230" fill="none" stroke="#800000" stroke-width="1"/>
   <path d="M154,163 L154,114 A8,8 0 0,0 146,106 L49,106" fill="none" stroke="#800000" stroke-width="1"/>
   <path d="M476,276 L476,269 A6,6 0 0,0 470,263 L49,263" fill="none" stroke="#800000" stroke-width="1"/>
   <path d="M419,399 L419,374 A8,8 0 0,0 411,366 L43,366" fill="none" stroke="#800000" stroke-width="1"/>
   <path d="M212,466 L212,479 A8,8 0 0,1 204,487 L31,487" fill="none" stroke="#800000" stroke-width="1"/>
   <path d="M460,172 L460,234 A8,8 0 0,1 452,242 L29,242" fill="none" stroke="#800000" stroke-width="1"/>
   <path d="M36,504 L36,576 A8,8 0 0,0 44,584 L205,584" fill="none" stroke="#800000" stroke-width="1"/>
   <path d="M23,507 L98,507 A8,8 0 0,1 106,515 L106,675" fill="none" stroke="#800000" stroke-width="1"/>
   <polyline fill="none" points="43,341 43,280" stroke="#800000" stroke-width="1"/>
   <polygon fill="#ffffff" points="43,280 49,294 36,294" stroke="#800000" stroke-width="1" stroke-linejoin="miter"/>
   <polyline fill="none" points="40,453 40,405" stroke="#800000" stroke-width="1"/>
   <polygon fill="#ffffff" points="40,405 46,419 33,419" stroke="#800000" stroke-width="1" stroke-linejoin="miter"/>
   <defs>
      <linearGradient id="Gradient1" x1="0%" x2="100%" y1="0%" y2="100%" gradientUnits="objectBoundingBox">
         <stop offset="5%" stop-color="#ffffff"/>
         <stop offset="95%" stop-color="#804040"/>
      </linearGradient>
   </defs>
   <ellipse cx="34" cy="463" rx="8" ry="8" fill="url(#Gradient1)" stroke="#800000" stroke-width="2"/>
   <line x1="34" x2="34" y1="471" y2="487" stroke="#800000" stroke-width="2"/>
   <line x1="18" x2="50" y1="478" y2="478" stroke="#800000" stroke-width="2"/>
   <line x1="18" x2="34" y1="502" y2="487" stroke="#800000" stroke-width="2"/>
   <line x1="50" x2="34" y1="502" y2="487" stroke="#800000" stroke-width="2"/>
   <text x="34" y="515" fill="#000000" font-size="10" font-family="Arial" text-anchor="middle">organisme</text>
   <defs>
      <linearGradient id="Gradient2" x1="0%" x2="100%" y1="0%" y2="100%" gradientUnits="objectBoundingBox">
         <stop offset="5%" stop-color="#ffffff"/>
         <stop offset="95%" stop-color="#804040"/>
      </linearGradient>
   </defs>
   <ellipse cx="42" cy="351" rx="8" ry="8" fill="url(#Gradient2)" stroke="#800000" stroke-width="2"/>
   <line x1="42" x2="42" y1="359" y2="375" stroke="#800000" stroke-width="2"/>
   <line x1="26" x2="58" y1="366" y2="366" stroke="#800000" stroke-width="2"/>
   <line x1="26" x2="42" y1="390" y2="375" stroke="#800000" stroke-width="2"/>
   <line x1="58" x2="42" y1="390" y2="375" stroke="#800000" stroke-width="2"/>
   <text x="42" y="403" fill="#000000" font-size="10" font-family="Arial" text-anchor="middle">tuteur</text>
   <defs>
      <linearGradient id="Gradient3" x1="0%" x2="100%" y1="0%" y2="100%" gradientUnits="objectBoundingBox">
         <stop offset="5%" stop-color="#ffffff"/>
         <stop offset="95%" stop-color="#804040"/>
      </linearGradient>
   </defs>
   <ellipse cx="46" cy="73" rx="8" ry="8" fill="url(#Gradient3)" stroke="#800000" stroke-width="2"/>
   <line x1="46" x2="46" y1="81" y2="97" stroke="#800000" stroke-width="2"/>
   <line x1="30" x2="62" y1="89" y2="89" stroke="#800000" stroke-width="2"/>
   <line x1="30" x2="46" y1="112" y2="97" stroke="#800000" stroke-width="2"/>
   <line x1="62" x2="46" y1="112" y2="97" stroke="#800000" stroke-width="2"/>
   <text x="46" y="125" fill="#000000" font-size="10" font-family="Arial" text-anchor="middle">Visiteur</text>
   <defs>
      <linearGradient id="Gradient4" x1="0%" x2="0%" y1="0%" y2="100%" gradientUnits="objectBoundingBox">
         <stop offset="5%" stop-color="#ffcf9f"/>
         <stop offset="95%" stop-color="#ffffff"/>
      </linearGradient>
   </defs>
   <ellipse cx="295" cy="174" rx="48" ry="35" fill="url(#Gradient4)" stroke="#800000" stroke-width="2"/>
   <text x="295" y="177" fill="#000000" font-size="10" font-family="Arial" text-anchor="middle">inscription</text>
   <defs>
      <linearGradient id="Gradient5" x1="0%" x2="0%" y1="0%" y2="100%" gradientUnits="objectBoundingBox">
         <stop offset="5%" stop-color="#ffcf9f"/>
         <stop offset="95%" stop-color="#ffffff"/>
      </linearGradient>
   </defs>
   <ellipse cx="772" cy="304" rx="55" ry="35" fill="url(#Gradient5)" stroke="#800000" stroke-width="2"/>
   <text x="772" y="307" fill="#000000" font-size="10" font-family="Arial" text-anchor="middle">authentification</text>
   <defs>
      <linearGradient id="Gradient6" x1="0%" x2="0%" y1="0%" y2="100%" gradientUnits="objectBoundingBox">
         <stop offset="5%" stop-color="#ffcf9f"/>
         <stop offset="95%" stop-color="#ffffff"/>
      </linearGradient>
   </defs>
   <ellipse cx="475" cy="153" rx="48" ry="35" fill="url(#Gradient6)" stroke="#800000" stroke-width="2"/>
   <text x="475" y="156" fill="#000000" font-size="10" font-family="Arial" text-anchor="middle">prospection</text>
   <defs>
      <linearGradient id="Gradient7" x1="0%" x2="0%" y1="0%" y2="100%" gradientUnits="objectBoundingBox">
         <stop offset="5%" stop-color="#ffcf9f"/>
         <stop offset="95%" stop-color="#ffffff"/>
      </linearGradient>
   </defs>
   <ellipse cx="675" cy="38" rx="48" ry="35" fill="url(#Gradient7)" stroke="#800000" stroke-width="2"/>
   <text x="675" y="41" fill="#000000" font-size="10" font-family="Arial" text-anchor="middle">chercher app</text>
   <defs>
      <linearGradient id="Gradient8" x1="0%" x2="0%" y1="0%" y2="100%" gradientUnits="objectBoundingBox">
         <stop offset="5%" stop-color="#ffcf9f"/>
         <stop offset="95%" stop-color="#ffffff"/>
      </linearGradient>
   </defs>
   <ellipse cx="802" cy="96" rx="48" ry="35" fill="url(#Gradient8)" stroke="#800000" stroke-width="2"/>
   <text x="802" y="99" fill="#000000" font-size="10" font-family="Arial" text-anchor="middle">telecharger</text>
   <defs>
      <linearGradient id="Gradient9" x1="0%" x2="0%" y1="0%" y2="100%" gradientUnits="objectBoundingBox">
         <stop offset="5%" stop-color="#ffcf9f"/>
         <stop offset="95%" stop-color="#ffffff"/>
      </linearGradient>
   </defs>
   <ellipse cx="180" cy="155" rx="48" ry="35" fill="url(#Gradient9)" stroke="#800000" stroke-width="2"/>
   <text x="180" y="158" fill="#000000" font-size="10" font-family="Arial" text-anchor="middle">envoyer mail</text>
   <defs>
      <linearGradient id="Gradient10" x1="0%" x2="0%" y1="0%" y2="100%" gradientUnits="objectBoundingBox">
         <stop offset="5%" stop-color="#ffcf9f"/>
         <stop offset="95%" stop-color="#ffffff"/>
      </linearGradient>
   </defs>
   <ellipse cx="138" cy="691" rx="48" ry="35" fill="url(#Gradient10)" stroke="#800000" stroke-width="2"/>
   <text x="138" y="694" fill="#000000" font-size="10" font-family="Arial" text-anchor="middle">gerer titeurs</text>
   <defs>
      <linearGradient id="Gradient11" x1="0%" x2="0%" y1="0%" y2="100%" gradientUnits="objectBoundingBox">
         <stop offset="5%" stop-color="#ffcf9f"/>
         <stop offset="95%" stop-color="#ffffff"/>
      </linearGradient>
   </defs>
   <ellipse cx="259" cy="465" rx="58" ry="36" fill="url(#Gradient11)" stroke="#800000" stroke-width="2"/>
   <text x="259" y="468" fill="#000000" font-size="10" font-family="Arial" text-anchor="middle">gerer apprenants</text>
   <defs>
      <linearGradient id="Gradient12" x1="0%" x2="0%" y1="0%" y2="100%" gradientUnits="objectBoundingBox">
         <stop offset="5%" stop-color="#ffcf9f"/>
         <stop offset="95%" stop-color="#ffffff"/>
      </linearGradient>
   </defs>
   <ellipse cx="496" cy="398" rx="87" ry="36" fill="url(#Gradient12)" stroke="#800000" stroke-width="2"/>
   <text x="496" y="401" fill="#000000" font-size="10" font-family="Arial" text-anchor="middle">affectation apprenant-app</text>
   <defs>
      <linearGradient id="Gradient13" x1="0%" x2="0%" y1="0%" y2="100%" gradientUnits="objectBoundingBox">
         <stop offset="5%" stop-color="#ffcf9f"/>
         <stop offset="95%" stop-color="#ffffff"/>
      </linearGradient>
   </defs>
   <ellipse cx="519" cy="273" rx="58" ry="36" fill="url(#Gradient13)" stroke="#800000" stroke-width="2"/>
   <text x="519" y="276" fill="#000000" font-size="10" font-family="Arial" text-anchor="middle">Suivre le progres</text>
   <defs>
      <linearGradient id="Gradient14" x1="0%" x2="100%" y1="0%" y2="100%" gradientUnits="objectBoundingBox">
         <stop offset="5%" stop-color="#ffffff"/>
         <stop offset="95%" stop-color="#804040"/>
      </linearGradient>
   </defs>
   <ellipse cx="42" cy="226" rx="8" ry="8" fill="url(#Gradient14)" stroke="#800000" stroke-width="2"/>
   <line x1="42" x2="42" y1="234" y2="250" stroke="#800000" stroke-width="2"/>
   <line x1="26" x2="58" y1="242" y2="242" stroke="#800000" stroke-width="2"/>
   <line x1="26" x2="42" y1="265" y2="250" stroke="#800000" stroke-width="2"/>
   <line x1="58" x2="42" y1="265" y2="250" stroke="#800000" stroke-width="2"/>
   <text x="42" y="278" fill="#000000" font-size="10" font-family="Arial" text-anchor="middle">Parent</text>
   <defs>
      <linearGradient id="Gradient15" x1="0%" x2="0%" y1="0%" y2="100%" gradientUnits="objectBoundingBox">
         <stop offset="5%" stop-color="#ffcf9f"/>
         <stop offset="95%" stop-color="#ffffff"/>
      </linearGradient>
   </defs>
   <ellipse cx="499" cy="533" rx="61" ry="36" fill="url(#Gradient15)" stroke="#800000" stroke-width="2"/>
   <text x="499" y="536" fill="#000000" font-size="10" font-family="Arial" text-anchor="middle">ajouter apprenant</text>
   <defs>
      <linearGradient id="Gradient16" x1="0%" x2="0%" y1="0%" y2="100%" gradientUnits="objectBoundingBox">
         <stop offset="5%" stop-color="#ffcf9f"/>
         <stop offset="95%" stop-color="#ffffff"/>
      </linearGradient>
   </defs>
   <ellipse cx="465" cy="625" rx="65" ry="36" fill="url(#Gradient16)" stroke="#800000" stroke-width="2"/>
   <text x="465" y="628" fill="#000000" font-size="10" font-family="Arial" text-anchor="middle">modifier apprenant</text>
   <defs>
      <linearGradient id="Gradient17" x1="0%" x2="0%" y1="0%" y2="100%" gradientUnits="objectBoundingBox">
         <stop offset="5%" stop-color="#ffcf9f"/>
         <stop offset="95%" stop-color="#ffffff"/>
      </linearGradient>
   </defs>
   <ellipse cx="677" cy="481" rx="70" ry="36" fill="url(#Gradient17)" stroke="#800000" stroke-width="2"/>
   <text x="677" y="484" fill="#000000" font-size="10" font-family="Arial" text-anchor="middle">supprimer apprenant</text>
   <defs>
      <linearGradient id="Gradient18" x1="0%" x2="0%" y1="0%" y2="100%" gradientUnits="objectBoundingBox">
         <stop offset="5%" stop-color="#ffcf9f"/>
         <stop offset="95%" stop-color="#ffffff"/>
      </linearGradient>
   </defs>
   <ellipse cx="202" cy="845" rx="48" ry="36" fill="url(#Gradient18)" stroke="#800000" stroke-width="2"/>
   <text x="202" y="848" fill="#000000" font-size="10" font-family="Arial" text-anchor="middle">ajouter tuteur</text>
   <defs>
      <linearGradient id="Gradient19" x1="0%" x2="0%" y1="0%" y2="100%" gradientUnits="objectBoundingBox">
         <stop offset="5%" stop-color="#ffcf9f"/>
         <stop offset="95%" stop-color="#ffffff"/>
      </linearGradient>
   </defs>
   <ellipse cx="332" cy="833" rx="51" ry="36" fill="url(#Gradient19)" stroke="#800000" stroke-width="2"/>
   <text x="332" y="836" fill="#000000" font-size="10" font-family="Arial" text-anchor="middle">modifier tuteur</text>
   <defs>
      <linearGradient id="Gradient20" x1="0%" x2="0%" y1="0%" y2="100%" gradientUnits="objectBoundingBox">
         <stop offset="5%" stop-color="#ffcf9f"/>
         <stop offset="95%" stop-color="#ffffff"/>
      </linearGradient>
   </defs>
   <ellipse cx="488" cy="771" rx="56" ry="36" fill="url(#Gradient20)" stroke="#800000" stroke-width="2"/>
   <text x="488" y="774" fill="#000000" font-size="10" font-family="Arial" text-anchor="middle">supprimer tuteur</text>
   <defs>
      <linearGradient id="Gradient21" x1="0%" x2="0%" y1="0%" y2="100%" gradientUnits="objectBoundingBox">
         <stop offset="5%" stop-color="#ffcf9f"/>
         <stop offset="95%" stop-color="#ffffff"/>
      </linearGradient>
   </defs>
   <ellipse cx="276" cy="596" rx="89" ry="36" fill="url(#Gradient21)" stroke="#800000" stroke-width="2"/>
   <text x="275" y="599" fill="#000000" font-size="10" font-family="Arial" text-anchor="middle">affectation tuteur-apprenat</text>
</svg>
